# Made in Blockbench 4.12.3
mtllib Small_button.mtl

o smallbutton
v 0 1.306149632895881e-17 0.12132375000000001
v 0.0388325 -0.09375000000000001 -0.003676249999999992
v 0.0388325 -0.09374999999999999 0.12132375000000002
v 0.09375 -0.03883250000000001 -0.003676249999999992
v 0.09375 -0.038832499999999985 0.12132375000000001
v 0.09375 0.038832499999999985 -0.0036762500000000198
v 0.09375 0.03883250000000001 0.12132375
v 0.0388325 0.09374999999999999 -0.0036762500000000198
v 0.0388325 0.09375000000000001 0.12132374999999998
v -0.0388325 0.09374999999999999 -0.0036762500000000198
v -0.0388325 0.09375000000000001 0.12132374999999998
v -0.09375 0.038832499999999985 -0.0036762500000000198
v -0.09375 0.03883250000000001 0.12132375
v -0.09375 -0.03883250000000001 -0.003676249999999992
v -0.09375 -0.038832499999999985 0.12132375000000001
v -0.0388325 -0.09375000000000001 -0.003676249999999992
v -0.0388325 -0.09374999999999999 0.12132375000000002
vt 0.1875 0.875
vt 0.25 0.875
vt 0.25 1
vt 0.1875 1
vt 0.13258125 0.8125
vt 0.1875 0.86741875
vt 0.09375 0.90625
vt 0.1875 0.875
vt 0.25 0.875
vt 0.25 1
vt 0.1875 1
vt 0.1875 0.86741875
vt 0.1875 0.94508125
vt 0.09375 0.90625
vt 0.1875 0.875
vt 0.25 0.875
vt 0.25 1
vt 0.1875 1
vt 0.1875 0.94508125
vt 0.13258125 1
vt 0.09375 0.90625
vt 0.1875 0.875
vt 0.25 0.875
vt 0.25 1
vt 0.1875 1
vt 0.13258125 1
vt 0.05491875 1
vt 0.09375 0.90625
vt 0.1875 0.875
vt 0.25 0.875
vt 0.25 1
vt 0.1875 1
vt 0.05491875 1
vt 0 0.94508125
vt 0.09375 0.90625
vt 0.1875 0.875
vt 0.25 0.875
vt 0.25 1
vt 0.1875 1
vt 0 0.94508125
vt 0 0.86741875
vt 0.09375 0.90625
vt 0.1875 0.875
vt 0.25 0.875
vt 0.25 1
vt 0.1875 1
vt 0 0.86741875
vt 0.05491875 0.8125
vt 0.09375 0.90625
vt 0.1875 0.875
vt 0.25 0.875
vt 0.25 1
vt 0.1875 1
vt 0.05491875 0.8125
vt 0.13258125 0.8125
vt 0.09375 0.90625
vn 0.7071067811865476 -0.7071067811865476 1.5700924586837752e-16
vn 0 2.220446049250313e-16 1
vn 1 0 0
vn 0 2.220446049250313e-16 1
vn 0.7071067811865476 0.7071067811865476 -1.5700924586837752e-16
vn 0 2.220446049250313e-16 1
vn 0 1 -2.220446049250313e-16
vn 0 2.220446049250313e-16 1
vn -0.7071067811865476 0.7071067811865476 -1.5700924586837752e-16
vn 0 2.220446049250313e-16 1
vn -1 0 0
vn 0 2.220446049250313e-16 1
vn -0.7071067811865476 -0.7071067811865476 1.5700924586837752e-16
vn 0 2.220446049250313e-16 1
vn 0 -1 2.220446049250313e-16
vn 0 2.220446049250313e-16 1
usemtl m_9313ee7a-8f32-c9ac-15a3-ec1376b754d3
f 2/1/1 4/2/1 5/3/1 3/4/1
f 3/5/2 5/6/2 1/7/2
f 4/8/3 6/9/3 7/10/3 5/11/3
f 5/12/4 7/13/4 1/14/4
f 6/15/5 8/16/5 9/17/5 7/18/5
f 7/19/6 9/20/6 1/21/6
f 8/22/7 10/23/7 11/24/7 9/25/7
f 9/26/8 11/27/8 1/28/8
f 10/29/9 12/30/9 13/31/9 11/32/9
f 11/33/10 13/34/10 1/35/10
f 12/36/11 14/37/11 15/38/11 13/39/11
f 13/40/12 15/41/12 1/42/12
f 14/43/13 16/44/13 17/45/13 15/46/13
f 15/47/14 17/48/14 1/49/14
f 16/50/15 2/51/15 3/52/15 17/53/15
f 17/54/16 3/55/16 1/56/16