{"asset":{"version":"2.0","generator":"Blockbench 4.11.2 glTF exporter"},"scenes":[{"nodes":[2],"name":"blockbench_export"}],"scene":0,"nodes":[{"translation":[0,-1.25,-0.25],"name":"Base Terminal","mesh":0},{"translation":[0,0.0625,0.125],"name":"root","children":[0]},{"children":[1]}],"bufferViews":[{"buffer":0,"byteOffset":0,"byteLength":1368,"target":34962,"byteStride":12},{"buffer":0,"byteOffset":1368,"byteLength":1368,"target":34962,"byteStride":12},{"buffer":0,"byteOffset":2736,"byteLength":912,"target":34962,"byteStride":8},{"buffer":0,"byteOffset":3648,"byteLength":336,"target":34963}],"buffers":[{"byteLength":3984,"uri":"data:application/octet-stream;base64,"}],"accessors":[{"bufferView":0,"componentType":5126,"count":114,"max":[0.65625,2.750612735748291,0.75],"min":[-0.65625,1.1875,-0.4375],"type":"VEC3"},{"bufferView":1,"componentType":5126,"count":114,"max":[1,1,1],"min":[-1,-1,-1],"type":"VEC3"},{"bufferView":2,"componentType":5126,"count":114,"max":[0.5859375,0.41796875],"min":[0,0],"type":"VEC2"},{"bufferView":3,"componentType":5123,"count":168,"max":[113],"min":[0],"type":"SCALAR"}],"materials":[{"pbrMetallicRoughness":{"metallicFactor":0,"roughnessFactor":1,"baseColorTexture":{"index":0}},"alphaMode":"MASK","alphaCutoff":0.05,"doubleSided":true}],"textures":[{"sampler":0,"source":0,"name":"ConsoleTexture.png"}],"samplers":[{"magFilter":9728,"minFilter":9728,"wrapS":33071,"wrapT":33071}],"images":[{"mimeType":"image/png","uri":"data:image/png;base64,"}],"meshes":[{"primitives":[{"mode":4,"attributes":{"POSITION":0,"NORMAL":1,"TEXCOORD_0":2},"indices":3,"material":0}]}]}