# Blender 4.3.2
# www.blender.org
mtllib console_corner.mtl
o cube
v -0.735913 1.250000 -1.500000
v 2.307582 1.250000 2.370719
v 2.721194 1.250000 1.957107
v -0.735913 -1.250000 -1.500000
v 2.307582 -1.250000 2.370719
v 2.721194 -1.250000 1.957107
v -1.875000 1.250000 -1.500000
v -1.875000 1.250000 -0.915064
v -0.978201 1.250000 -0.915064
v -1.875000 -1.250000 -1.500000
v -1.875000 -1.250000 -0.915064
v -0.978201 -1.250000 -0.915064
v -1.875000 -0.000000 -1.500000
v -0.735913 -0.000000 -1.500000
v -1.875000 -0.000000 -0.915064
v 2.307582 0.000000 2.370719
v -1.875000 -1.250000 1.250000
v 0.776650 0.000000 3.901650
v 2.721194 0.000000 1.957107
v 0.776650 -1.250000 3.901650
v 0.069544 -0.000000 -0.694544
v -1.875000 0.000000 1.250000
v 0.069544 -1.250000 -0.694544
v -0.344069 1.250000 -0.280932
v -0.344069 -1.250000 -0.280931
v 0.069544 1.250000 -0.694543
vn -0.0000 -0.0000 -1.0000
vn -1.0000 -0.0000 -0.0000
vn -0.0000 1.0000 -0.0000
vn 0.7071 -0.0000 -0.7071
vn 0.7071 -0.0000 0.7071
vn -0.0000 -1.0000 -0.0000
vn -0.0000 0.8660 0.5000
vn -0.7071 -0.0000 0.7071
vn -0.3536 0.8660 0.3536
vt 8.062500 -0.250000
vt 6.625000 -6.011218
vt 0.000000 0.000000
vt 8.397437 0.375000
vt 3.812500 -2.937500
vt 8.397437 1.000000
vt 8.062500 0.375000
vt 8.062500 1.000000
vt 6.625000 -5.959936
vt 4.173547 -5.867539
vt 5.585458 -5.625000
vt 6.625000 -5.625000
vt 10.227563 -3.562500
vt 10.562500 -3.562500
vt 10.562500 -2.937500
vt 10.227563 -2.937500
vt 6.325336 -5.867540
vt 6.449461 -5.959936
vt 5.759616 -5.959936
vt 5.521456 -5.811031
vt 8.397437 -0.250000
vt 6.105229 -6.011218
vt 3.812500 -4.187500
vt 7.562500 -4.187500
vt 7.562500 -2.937500
vt 2.875000 -5.959936
vt 2.875000 -5.625000
s 0
usemtl none
f 10/1/1 13/2/1 14/3/1 4/3/1
f 15/4/2 22/5/2 8/6/2
f 13/7/2 15/4/2 8/6/2 7/8/2
f 8/9/3 9/10/3 1/11/3 7/12/3
f 14/3/4 21/3/4 23/3/4 4/3/4
f 16/13/5 19/14/5 3/15/5 2/16/5
f 18/3/5 16/13/5 2/16/5
f 1/17/3 9/18/3 24/19/3 26/20/3
f 4/3/6 23/3/6 25/3/6 12/3/6
f 9/10/7 8/6/7 22/5/7
f 10/1/2 11/21/2 15/4/2 13/7/2
f 11/3/2 17/3/2 22/5/2 15/4/2
f 7/12/1 1/11/1 14/22/1 13/2/1
f 17/23/8 20/24/8 18/25/8 22/5/8
f 24/19/9 22/5/9 18/3/9 2/26/9
f 17/3/6 11/3/6 12/3/6 25/3/6
f 9/18/9 22/5/9 24/19/9
f 5/3/6 25/3/6 23/3/6 6/3/6
f 4/3/6 12/3/6 11/3/6 10/1/6
f 26/20/3 24/19/3 2/26/3 3/27/3
f 14/3/4 1/17/4 26/20/4 21/3/4
f 21/3/4 19/3/4 6/3/4 23/3/4
f 21/3/4 26/20/4 3/27/4 19/14/4
f 5/3/5 6/3/5 19/3/5 16/13/5
f 5/3/5 16/13/5 18/25/5 20/24/5
f 17/3/6 25/3/6 5/3/6 20/24/6
