{"asset":{"version":"2.0","generator":"Blockbench 4.12.3 glTF exporter"},"scenes":[{"nodes":[3],"name":"blockbench_export"}],"scene":0,"nodes":[{"translation":[-0.125,-0.1875,-0.25],"name":"cuboid","mesh":0},{"rotation":[0,-0.25881904510252074,0,0.9659258262890683],"translation":[0.296875,0.015625,-0.21875],"name":"plane","mesh":1},{"rotation":[0,0.23768589232617307,0,0.9713420698132614],"translation":[-0.34375,0.015625,-0.203125],"name":"plane","mesh":2},{"children":[0,1,2]}],"bufferViews":[{"buffer":0,"byteOffset":0,"byteLength":1944,"target":34962,"byteStride":12},{"buffer":0,"byteOffset":1944,"byteLength":1944,"target":34962,"byteStride":12},{"buffer":0,"byteOffset":3888,"byteLength":1296,"target":34962,"byteStride":8},{"buffer":0,"byteOffset":5184,"byteLength":480,"target":34963},{"buffer":0,"byteOffset":5664,"byteLength":288,"target":34962,"byteStride":12},{"buffer":0,"byteOffset":5952,"byteLength":288,"target":34962,"byteStride":12},{"buffer":0,"byteOffset":6240,"byteLength":192,"target":34962,"byteStride":8},{"buffer":0,"byteOffset":6432,"byteLength":72,"target":34963},{"buffer":0,"byteOffset":6504,"byteLength":288,"target":34962,"byteStride":12},{"buffer":0,"byteOffset":6792,"byteLength":288,"target":34962,"byteStride":12},{"buffer":0,"byteOffset":7080,"byteLength":192,"target":34962,"byteStride":8},{"buffer":0,"byteOffset":7272,"byteLength":72,"target":34963}],"buffers":[{"byteLength":7344,"uri":"data:application/octet-stream;base64,"}],"accessors":[{"bufferView":0,"componentType":5126,"count":162,"max":[0.34375,0.375,0.0625],"min":[-0.125,0.1875,-0.09375],"type":"VEC3"},{"bufferView":1,"componentType":5126,"count":162,"max":[1,1,1],"min":[-1,-1,-1],"type":"VEC3"},{"bufferView":2,"componentType":5126,"count":162,"max":[0.75,0.875],"min":[0,0],"type":"VEC2"},{"bufferView":3,"componentType":5123,"count":240,"max":[161],"min":[0],"type":"SCALAR"},{"bufferView":4,"componentType":5126,"count":24,"max":[0.1364382952451706,0.18199509382247925,0.09528244286775589],"min":[-0.0802183523774147,-0.02500000037252903,-0.06600885093212128],"type":"VEC3"},{"bufferView":5,"componentType":5126,"count":24,"max":[0.9988285303115845,0.933506429195404,0.9977819323539734],"min":[-0.9989563226699829,-0.997957170009613,-0.9985514283180237],"type":"VEC3"},{"bufferView":6,"componentType":5126,"count":24,"max":[0.792815625667572,0.625],"min":[0.019365625455975533,0],"type":"VEC2"},{"bufferView":7,"componentType":5123,"count":36,"max":[23],"min":[0],"type":"SCALAR"},{"bufferView":8,"componentType":5126,"count":24,"max":[0.1364382952451706,0.18199509382247925,0.09528244286775589],"min":[-0.0802183523774147,-0.02500000037252903,-0.06600885093212128],"type":"VEC3"},{"bufferView":9,"componentType":5126,"count":24,"max":[0.9988285303115845,0.933506429195404,0.9977819323539734],"min":[-0.9989563226699829,-0.997957170009613,-0.9985514283180237],"type":"VEC3"},{"bufferView":10,"componentType":5126,"count":24,"max":[0.792815625667572,0.625],"min":[0.019365625455975533,0],"type":"VEC2"},{"bufferView":11,"componentType":5123,"count":36,"max":[23],"min":[0],"type":"SCALAR"}],"materials":[{"pbrMetallicRoughness":{"metallicFactor":0,"roughnessFactor":1,"baseColorTexture":{"index":0}},"alphaMode":"MASK","alphaCutoff":0.05,"doubleSided":true},{"pbrMetallicRoughness":{"metallicFactor":0,"roughnessFactor":1,"baseColorTexture":{"index":1}},"alphaMode":"MASK","alphaCutoff":0.05,"doubleSided":true},{"pbrMetallicRoughness":{"metallicFactor":0,"roughnessFactor":1,"baseColorTexture":{"index":2}},"alphaMode":"MASK","alphaCutoff":0.05,"doubleSided":true}],"textures":[{"sampler":0,"source":0,"name":"texture"},{"sampler":1,"source":1,"name":"texture2"},{"sampler":2,"source":2,"name":"texture"}],"samplers":[{"magFilter":9728,"minFilter":9728,"wrapS":33071,"wrapT":33071},{"magFilter":9728,"minFilter":9728,"wrapS":33071,"wrapT":33071},{"magFilter":9728,"minFilter":9728,"wrapS":33071,"wrapT":33071}],"images":[{"mimeType":"image/png","uri":"data:image/png;base64,"},{"mimeType":"image/png","uri":"data:image/png;base64,"},{"mimeType":"image/png","uri":"data:image/png;base64,"}],"meshes":[{"primitives":[{"mode":4,"attributes":{"POSITION":0,"NORMAL":1,"TEXCOORD_0":2},"indices":3,"material":0}]},{"primitives":[{"mode":4,"attributes":{"POSITION":4,"NORMAL":5,"TEXCOORD_0":6},"indices":7,"material":1}]},{"primitives":[{"mode":4,"attributes":{"POSITION":8,"NORMAL":9,"TEXCOORD_0":10},"indices":11,"material":2}]}]}