{"asset":{"version":"2.0","generator":"Blockbench 4.11.2 glTF exporter"},"scenes":[{"nodes":[2],"name":"blockbench_export"}],"scene":0,"nodes":[{"translation":[-9.942295742911849e-18,-0.2754643677218302,1.1081517130120499e-17],"name":"pot","mesh":0},{"name":"bone"},{"children":[0,1]}],"bufferViews":[{"buffer":0,"byteOffset":0,"byteLength":7200,"target":34962,"byteStride":12},{"buffer":0,"byteOffset":7200,"byteLength":7200,"target":34962,"byteStride":12},{"buffer":0,"byteOffset":14400,"byteLength":4800,"target":34962,"byteStride":8},{"buffer":0,"byteOffset":19200,"byteLength":1728,"target":34963}],"buffers":[{"byteLength":20928,"uri":"data:application/octet-stream;base64,"}],"accessors":[{"bufferView":0,"componentType":5126,"count":600,"max":[0.3176882863044739,0.6499999761581421,0.2989383041858673],"min":[-0.3176882863044739,0.29374998807907104,-0.2989383041858673],"type":"VEC3"},{"bufferView":1,"componentType":5126,"count":600,"max":[1,1,1],"min":[-1,-1,-1],"type":"VEC3"},{"bufferView":2,"componentType":5126,"count":600,"max":[0.6647921800613403,0.5673937797546387],"min":[0.00014292029663920403,0],"type":"VEC2"},{"bufferView":3,"componentType":5123,"count":864,"max":[599],"min":[0],"type":"SCALAR"}],"materials":[{"pbrMetallicRoughness":{"metallicFactor":0,"roughnessFactor":1,"baseColorTexture":{"index":0}},"alphaMode":"MASK","alphaCutoff":0.05,"doubleSided":true}],"textures":[{"sampler":0,"source":0,"name":"texture"}],"samplers":[{"magFilter":9728,"minFilter":9728,"wrapS":33071,"wrapT":33071}],"images":[{"mimeType":"image/png","uri":"data:image/png;base64,"}],"meshes":[{"primitives":[{"mode":4,"attributes":{"POSITION":0,"NORMAL":1,"TEXCOORD_0":2},"indices":3,"material":0}]}]}